# xmcd
#
# Track frame offsets: 
#        150
#        16007
#        32480
#
# Disc length: 642 seconds
#
# Revision: 1
# Processed by: cddbd v1.5.2PL0 Copyright (c) Steve Scherf et al.
# Submitted via: ExactAudioCopy v1.3
#
DISCID=12028003
DTITLE=トーコ - BAD LUCK ON LOVE 〜BLUES ON LIFE〜
DYEAR=1998
DGENRE=JPop
TTITLE0=BAD LUCK ON LOVE 〜BLUES ON LIFE〜  Endless Power Mix
TTITLE1=BAD LUCK ON LOVE 〜BLUES ON LIFE〜  Subterranean Mix
TTITLE2=BAD LUCK ON LOVE 〜BLUES ON LIFE〜  Rocking Instrument Mix
EXTD=YEAR: 1998
EXTT0=
EXTT1=
EXTT2=
PLAYORDER=
